<svg width="96" height="24" viewBox="0 0 96 24" fill="none" xmlns="http://www.w3.org/2000/svg">
<path d="M3.67939 23.7234H0V0.239954L3.67939 0.479908V23.7234ZM7.87069 1.87164C9.0225 1.87164 9.98234 2.83145 9.98234 3.98323C9.98234 5.15101 9.03849 6.09483 7.87069 6.09483C6.71888 6.09483 5.75904 5.13501 5.75904 3.98323C5.75904 2.83145 6.70288 1.87164 7.87069 1.87164ZM9.71038 23.7234H6.03099V6.97466L9.71038 7.18262V23.7234ZM18.4929 10.35V14.0453H15.7254V23.7074H12.046V5.34297C12.046 2.54351 14.3656 0 17.1012 0C18.029 0 18.7649 0.271947 18.9408 0.383925L18.7969 3.93524H17.1012C16.3653 3.93524 15.7414 4.55912 15.7414 5.34297V10.35H18.4929ZM19.9807 11.8377C19.9807 9.03826 22.2363 6.7347 25.0518 6.7347C27.8354 6.7347 30.091 9.02226 30.091 11.8377V15.421C30.091 16.4608 29.2591 17.2607 28.2513 17.2607H23.6441V18.8764C23.6441 19.6442 24.268 20.2841 25.0358 20.2841H28.5712L28.6832 23.4195L25.3558 23.9314C22.1563 24.4753 19.9487 21.6918 19.9487 18.8924L19.9807 11.8377ZM23.6601 13.5654H26.4116V11.8377C26.4116 11.0699 25.7877 10.43 25.0518 10.43C24.284 10.43 23.6601 11.0539 23.6601 11.8377V13.5654ZM33.2585 23.7234V0.383925H35.6261V7.47056C36.282 7.2626 37.3218 7.16662 38.0257 7.16662C40.5532 7.16662 42.5049 9.45418 42.5049 12.0617V23.7074H40.1853V12.0617C40.1853 10.7819 39.1455 9.75812 37.8657 9.75812H35.6101V23.7074L33.2585 23.7234ZM51.2075 11.6778C51.2075 10.334 50.5836 9.26222 48.8879 9.43818H48.9198C47.976 9.47018 46.7602 9.58215 45.7364 9.64614C45.7044 8.78231 45.6724 8.44638 45.6404 7.7905C46.4403 7.48656 47.5921 7.19861 48.5839 7.16662C51.5594 7.10263 53.5111 9.51817 53.5111 12.1097V19.1963C53.5111 21.7558 51.4634 23.8674 48.9039 23.8674C46.3443 23.8674 44.2486 21.7558 44.2486 19.1963V17.7406C44.2486 15.1811 45.9923 13.2454 48.9039 13.2454C50.0077 13.2454 50.5676 13.3574 51.1915 13.5494L51.2075 11.6778ZM51.2075 19.2283V15.1971H48.9198C47.6401 15.1971 46.6322 16.2049 46.6322 17.4846V19.2123C46.6322 20.4921 47.6401 21.5319 48.9198 21.5319C50.1996 21.5479 51.2075 20.5081 51.2075 19.2283ZM60.182 7.18262C62.7415 7.18262 64.8372 9.26222 64.8372 11.8537V12.1577C63.9253 12.1897 63.1735 12.1897 62.4856 12.2216V11.8697C62.4856 10.622 61.4458 9.58215 60.166 9.58215C58.9182 9.58215 57.9103 10.622 57.9103 11.8697V19.3243C57.9103 20.636 58.9182 21.6118 60.166 21.6118C61.4138 21.6118 62.4536 20.652 62.4856 19.4043C63.6374 19.5002 64.7412 19.5482 64.8372 19.5482C64.7252 22.0118 62.6456 23.9954 60.182 23.9954C57.6224 23.9954 55.5427 21.9158 55.5427 19.3243V11.8697C55.5427 9.27822 57.6224 7.18262 60.182 7.18262ZM66.7089 0.447914H69.0765V23.7234H66.7089V0.447914ZM74.1956 23.7234L69.6844 15.821C69.2365 15.0531 69.2365 14.9571 69.7804 14.0293L73.7637 7.40657H76.4673L71.988 15.0371L76.8352 23.7074C76.8032 23.7234 74.1956 23.7234 74.1956 23.7234ZM77.2991 11.9017C77.2991 9.31021 79.3788 7.19861 81.9543 7.19861C84.5139 7.19861 86.5776 9.31021 86.5776 11.9017V15.565C86.5776 16.2529 86.0497 16.7648 85.3938 16.7648H79.6667V19.2923C79.6667 20.572 80.6746 21.6118 81.9543 21.6118H84.9458C84.9778 22.3797 85.0098 22.9236 85.0738 23.4515L82.2263 23.8994C79.3148 24.4113 77.2991 21.8678 77.2991 19.2763V11.9017ZM79.6827 14.3972H84.258V11.8857C84.258 10.606 83.2181 9.56616 81.9703 9.56616C80.6906 9.56616 79.6827 10.606 79.6827 11.8857V14.3972ZM91.0568 23.7234H88.6892V12.0937C88.6892 9.50217 90.7049 7.08664 93.6804 7.15063C94.6882 7.18262 95.3121 7.42257 96 7.74251C95.968 8.46237 95.936 9.05426 95.904 9.59815L93.3285 9.53417C92.0807 9.53417 91.0728 10.8779 91.0728 12.0937L91.0568 23.7234Z" fill="#1D1D1F"/>
</svg>
