<?xml version="1.0" standalone="no"?>
<!DOCTYPE svg PUBLIC "-//W3C//DTD SVG 20010904//EN"
 "http://www.w3.org/TR/2001/REC-SVG-20010904/DTD/svg10.dtd">
<svg version="1.0" xmlns="http://www.w3.org/2000/svg"
 width="619.000000pt" height="100.000000pt" viewBox="0 0 619.000000 100.000000"
 preserveAspectRatio="xMidYMid meet">

<g transform="translate(0.000000,100.000000) scale(0.100000,-0.100000)"
fill="#000000" stroke="none">
<path d="M160 885 l0 -115 -40 0 -40 0 0 -80 0 -80 -40 0 -40 0 0 -115 0 -115
40 0 40 0 0 -80 0 -80 35 0 35 0 0 70 c0 39 0 73 0 78 0 4 -15 8 -35 10 l-35
3 0 115 0 114 35 0 34 0 3 78 3 77 78 3 77 3 0 34 c0 34 1 35 40 35 l40 0 0
-195 0 -195 35 0 35 0 0 195 0 195 40 0 c39 0 40 -1 40 -35 l0 -35 80 0 80 0
0 -80 0 -80 35 0 35 0 0 -115 0 -115 -35 0 -35 0 0 -80 0 -80 -80 0 -80 0 0
-40 0 -40 -115 0 -115 0 0 40 0 40 -75 0 -75 0 0 -110 0 -110 270 0 270 0 0
110 0 110 35 0 35 0 0 80 0 80 40 0 c39 0 40 1 40 34 0 33 2 35 38 38 35 3 37
5 40 41 l3 37 -40 0 -41 0 0 40 0 40 -40 0 -40 0 0 80 0 80 -35 0 -35 0 0 115
0 115 -270 0 -270 0 0 -115z"/>
<path d="M1120 500 l0 -220 40 0 40 0 0 85 0 85 130 0 130 0 0 -85 0 -85 45 0
45 0 0 220 0 220 -45 0 -45 0 0 -90 0 -91 -127 3 -128 3 -3 88 -3 87 -39 0
-40 0 0 -220z"/>
<path d="M1630 500 l0 -220 45 0 45 0 0 85 0 85 125 0 125 0 0 -85 0 -85 45 0
45 0 0 220 0 220 -215 0 -215 0 0 -220z m340 85 l0 -45 -125 0 -125 0 0 45 0
45 125 0 125 0 0 -45z"/>
<path d="M2140 500 l0 -220 215 0 215 0 0 45 0 45 -170 0 -170 0 0 130 0 130
170 0 170 0 0 45 0 45 -215 0 -215 0 0 -220z"/>
<path d="M2660 500 l0 -220 40 0 40 0 0 85 0 85 85 0 85 0 0 -40 0 -40 45 0
45 0 0 -45 0 -45 40 0 40 0 0 45 0 45 -40 0 -40 0 0 44 0 45 -42 3 c-42 3 -43
4 -43 38 0 34 1 35 43 38 l42 3 0 45 0 44 40 0 40 0 0 45 0 45 -40 0 -40 0 0
-45 0 -45 -45 0 -45 0 0 -45 0 -46 -82 3 -83 3 -3 88 -3 87 -39 0 -40 0 0
-220z"/>
<path d="M3170 500 l0 -220 215 0 215 0 0 45 0 45 -170 0 -170 0 0 40 0 39 83
3 82 3 3 43 3 42 -85 0 -86 0 0 45 0 45 170 0 170 0 0 45 0 45 -215 0 -215 0
0 -220z"/>
<path d="M3680 500 l0 -220 45 0 45 0 0 85 0 85 85 0 85 0 0 -40 0 -40 40 0
40 0 0 -45 0 -45 45 0 45 0 0 44 0 45 -42 3 c-42 3 -43 4 -46 41 l-3 37 45 0
46 0 0 135 0 135 -215 0 -215 0 0 -220z m340 85 l0 -45 -125 0 -125 0 0 45 0
45 125 0 125 0 0 -45z"/>
<path d="M4200 500 l0 -220 40 0 40 0 0 175 0 176 128 -3 127 -3 3 -172 2
-173 40 0 40 0 0 220 0 220 -210 0 -210 0 0 -220z"/>
<path d="M4710 500 l0 -220 215 0 215 0 0 220 0 220 -215 0 -215 0 0 -220z
m340 0 l0 -131 -127 3 -128 3 -3 114 c-1 63 0 121 2 128 4 10 37 13 131 13
l125 0 0 -130z"/>
<path d="M5220 500 l0 -220 215 0 215 0 0 220 0 220 -215 0 -215 0 0 -220z
m340 0 l0 -130 -125 0 -125 0 0 130 0 130 125 0 125 0 0 -130z"/>
<path d="M5730 500 l0 -220 45 0 45 0 0 175 0 176 128 -3 127 -3 3 -172 2
-173 40 0 40 0 0 220 0 220 -215 0 -215 0 0 -220z"/>
</g>
</svg>
