<svg width="108" height="24" viewBox="0 0 108 24" fill="none" xmlns="http://www.w3.org/2000/svg">
<path d="M52.7562 7.5C54.5987 9.18742 55.6347 11.4765 55.6364 13.8639V24H45.8182V15.1065C45.8165 14.3103 45.4701 13.5473 44.8551 12.9851L41.4639 9.87862C40.8493 9.31597 40.0161 8.99996 39.1475 9H36V24H26.1818V0H40.5031C41.7924 -1.69918e-06 43.0692 0.232794 44.2604 0.685094C45.4516 1.13739 46.534 1.80034 47.4457 2.63609L52.7562 7.5ZM98.1818 0V8.8935C98.1802 9.68965 97.8338 10.4526 97.2187 11.0148L93.8251 14.1213C93.5213 14.3999 93.1605 14.6209 92.7634 14.7716C92.3664 14.9224 91.9408 15 91.511 15H86.7948C87.8163 13.5504 88.361 11.8618 88.3636 10.136V0H78.5455V8.8935C78.5438 9.68965 78.1974 10.4526 77.5824 11.0148L74.1888 14.1213C73.8849 14.3999 73.5241 14.6209 73.1271 14.7716C72.73 14.9224 72.3044 15 71.8747 15H68.7273V0H58.9091V24H73.2304C75.835 24 78.333 23.0518 80.1751 21.3639L83.4545 18.3591V24H92.8667C95.4713 24 97.9694 23.0518 99.8115 21.3639L105.12 16.4999C106.962 14.8125 107.998 12.5234 108 10.136V0H98.1818ZM0 9H6.54545V24H16.3636V9H22.9091V0H0V9Z" fill="#1D1D1F"/>
</svg>
