<svg width="125" height="32" viewBox="0 0 125 32" fill="none" xmlns="http://www.w3.org/2000/svg">
<path d="M24.5735 11.7271C24.4791 8.55549 23.1413 5.54818 20.8489 3.35432C18.5565 1.16045 15.4933 -0.0439878 12.3206 0.00097072C5.75386 0.0937868 0.418098 5.49684 0.406496 12.0671C0.397555 14.5509 1.15788 16.9766 2.58303 19.0109C2.61917 19.063 2.6404 19.1239 2.64441 19.1872C2.64843 19.2505 2.63509 19.3136 2.60584 19.3699C2.57658 19.4261 2.53252 19.4733 2.4784 19.5063C2.42429 19.5394 2.36218 19.557 2.29878 19.5573H0.760357C0.713555 19.5573 0.667228 19.5667 0.624145 19.585C0.581062 19.6033 0.54211 19.6301 0.509617 19.6637C0.477124 19.6974 0.451758 19.7373 0.435037 19.781C0.418315 19.8247 0.410581 19.8714 0.412297 19.9181C0.507299 23.0893 1.84539 26.0959 4.13776 28.289C6.43014 30.4822 9.49296 31.6861 12.6652 31.6408C19.2319 31.5492 24.5677 26.1461 24.5793 19.5747C24.5878 17.0908 23.8271 14.6651 22.4016 12.6309C22.3651 12.5787 22.3436 12.5175 22.3394 12.454C22.3353 12.3904 22.3487 12.327 22.3781 12.2705C22.4075 12.214 22.4519 12.1667 22.5064 12.1337C22.5608 12.1007 22.6233 12.0833 22.687 12.0833H24.2254C24.2718 12.0833 24.3178 12.0741 24.3605 12.0561C24.4033 12.0381 24.442 12.0117 24.4745 11.9785C24.5069 11.9453 24.5324 11.906 24.5494 11.8628C24.5664 11.8196 24.5746 11.7735 24.5735 11.7271Z" fill="white"/>
<path d="M6.96599 15.4814L14.3913 8.05614C14.44 8.00745 14.5021 7.97433 14.5697 7.96096C14.6373 7.94759 14.7073 7.95458 14.7709 7.98105C14.8345 8.00751 14.8889 8.05225 14.927 8.10961C14.9652 8.16697 14.9855 8.23437 14.9853 8.30326V15.1751C14.9853 15.2674 15.022 15.356 15.0872 15.4212C15.1525 15.4865 15.241 15.5232 15.3334 15.5232H18.1178C18.1866 15.5233 18.2539 15.5437 18.3111 15.5819C18.3682 15.6202 18.4128 15.6745 18.4391 15.7381C18.4654 15.8017 18.4723 15.8716 18.4589 15.9391C18.4455 16.0065 18.4124 16.0685 18.3638 16.1172L10.9385 23.5425C10.8898 23.5911 10.8279 23.6242 10.7604 23.6376C10.6929 23.651 10.623 23.6441 10.5594 23.6178C10.4958 23.5915 10.4415 23.5469 10.4033 23.4898C10.365 23.4326 10.3446 23.3653 10.3445 23.2965V16.4235C10.3445 16.3312 10.3078 16.2427 10.2425 16.1774C10.1773 16.1121 10.0887 16.0754 9.99643 16.0754H7.21195C7.14316 16.0754 7.07592 16.0549 7.01874 16.0167C6.96156 15.9784 6.91699 15.9241 6.89067 15.8605C6.86436 15.797 6.85746 15.727 6.87087 15.6596C6.88427 15.5921 6.91737 15.5301 6.96599 15.4814Z" fill="#1D1D1F"/>
<path d="M41.2512 13.4755C41.981 13.6878 42.6504 13.8096 43.4719 14.0556C46.0881 14.8503 47.3667 16.1266 47.3667 19.0735C47.3667 22.3893 44.6274 24.1238 41.4334 24.1238C37.1174 24.1238 35.6521 21.6874 35.6185 18.9981C35.6185 18.9057 35.6551 18.8172 35.7204 18.7519C35.7857 18.6867 35.8742 18.65 35.9665 18.65H39.1803C39.268 18.6497 39.3525 18.6825 39.4171 18.7419C39.4816 18.8013 39.5213 18.8828 39.5283 18.9702C39.6026 19.99 40.0609 20.8405 41.4949 20.8405C42.56 20.8405 43.4127 20.323 43.4127 19.3798C43.4127 18.4365 42.9254 18.0107 41.8 17.7068C40.9171 17.4631 40.2175 17.3111 39.3358 16.9758C37.0838 16.1544 35.9584 14.6334 35.9584 12.1691C35.9584 9.43104 38.2707 7.42273 41.5274 7.42273C44.8397 7.42273 46.8539 9.03309 47.0221 12.2004C47.0243 12.2475 47.0169 12.2945 47.0004 12.3386C46.9839 12.3828 46.9586 12.4231 46.9261 12.4571C46.8935 12.4912 46.8544 12.5183 46.8111 12.5368C46.7678 12.5553 46.7211 12.5648 46.674 12.5647H43.6146C43.5294 12.5654 43.447 12.5349 43.3828 12.4789C43.3187 12.4228 43.2773 12.3452 43.2665 12.2608C43.1505 11.1992 42.5704 10.5878 41.4299 10.5878C40.4565 10.5878 39.8172 11.1354 39.8172 11.9568C39.8207 12.7446 40.2778 13.2017 41.2512 13.4755Z" fill="white"/>
<path d="M53.301 17.8572C53.301 19.4397 53.9403 20.4433 55.401 20.4433C56.8617 20.4433 57.6518 19.3782 57.6518 17.827V7.9827C57.6518 7.89039 57.6884 7.80186 57.7537 7.73659C57.819 7.67131 57.9075 7.63464 57.9998 7.63464H61.3806C61.4729 7.63464 61.5615 7.67131 61.6268 7.73659C61.692 7.80186 61.7287 7.89039 61.7287 7.9827V23.563C61.7287 23.6554 61.692 23.7439 61.6268 23.8092C61.5615 23.8744 61.4729 23.9111 61.3806 23.9111H58.03C57.9377 23.9111 57.8491 23.8744 57.7839 23.8092C57.7186 23.7439 57.6819 23.6554 57.6819 23.563V22.6941C57.2561 23.2417 56.1911 24.0944 54.2744 24.0944C50.6546 24.0944 49.2241 21.658 49.2241 18.3433V7.9827C49.2241 7.89039 49.2607 7.80186 49.326 7.73659C49.3913 7.67131 49.4798 7.63464 49.5721 7.63464H52.9529C53.0453 7.63464 53.1338 7.67131 53.1991 7.73659C53.2643 7.80186 53.301 7.89039 53.301 7.9827V17.8572Z" fill="white"/>
<path d="M68.3117 27.0825L64.9309 29.8902C64.88 29.9326 64.8181 29.9595 64.7525 29.968C64.6868 29.9764 64.6201 29.9659 64.5602 29.9378C64.5003 29.9097 64.4496 29.865 64.4142 29.8091C64.3787 29.7532 64.3599 29.6884 64.36 29.6222V7.9821C64.36 7.88979 64.3967 7.80126 64.462 7.73598C64.5273 7.67071 64.6158 7.63404 64.7081 7.63404H67.8766C67.9689 7.63404 68.0575 7.67071 68.1227 7.73598C68.188 7.80126 68.2247 7.88979 68.2247 7.9821V9.18523C69.0461 8.3638 70.6275 7.36023 73.2135 7.36023C78.1421 7.36023 81.3675 10.8281 81.3675 15.7264C81.3675 20.4427 78.2036 24.1843 73.0314 24.1843C70.8711 24.1843 69.2584 23.3026 68.437 22.603V26.8145C68.4371 26.8656 68.4259 26.9161 68.4042 26.9625C68.3826 27.0088 68.351 27.0498 68.3117 27.0825ZM72.8179 20.5645C75.5873 20.5645 77.2905 18.5562 77.2905 15.7879C77.2905 13.0197 75.4957 10.9801 72.7878 10.9801C70.0195 10.9801 68.3152 13.0185 68.3152 15.7879C68.3152 18.5573 70.11 20.5645 72.8179 20.5645Z" fill="white"/>
<path d="M87.0247 23.912H83.6439C83.5516 23.912 83.4631 23.8754 83.3978 23.8101C83.3325 23.7448 83.2958 23.6563 83.2958 23.564V5.26992C83.2958 5.20344 83.3104 5.13777 83.3387 5.0776C83.367 5.01743 83.4082 4.96425 83.4594 4.92186L86.8019 2.14434C86.8528 2.10198 86.9147 2.07499 86.9804 2.06656C87.046 2.05812 87.1127 2.06859 87.1726 2.09672C87.2326 2.12485 87.2832 2.16949 87.3187 2.22539C87.3541 2.2813 87.3729 2.34615 87.3728 2.41235V23.5628C87.3729 23.6086 87.364 23.654 87.3466 23.6964C87.3292 23.7387 87.3036 23.7772 87.2712 23.8097C87.2389 23.8421 87.2005 23.8679 87.1582 23.8854C87.1159 23.903 87.0705 23.912 87.0247 23.912Z" fill="white"/>
<path d="M89.6084 4.19778C89.6084 3.5516 89.8651 2.93188 90.322 2.47496C90.7789 2.01805 91.3986 1.76135 92.0448 1.76135C92.691 1.76135 93.3107 2.01805 93.7676 2.47496C94.2246 2.93188 94.4812 3.5516 94.4812 4.19778C94.4812 4.84395 94.2246 5.46367 93.7676 5.92059C93.3107 6.3775 92.691 6.6342 92.0448 6.6342C91.3986 6.6342 90.7789 6.3775 90.322 5.92059C89.8651 5.46367 89.6084 4.84395 89.6084 4.19778ZM93.7329 23.9119H90.3521C90.2598 23.9119 90.1712 23.8752 90.106 23.81C90.0407 23.7447 90.004 23.6562 90.004 23.5639V7.98351C90.004 7.8912 90.0407 7.80267 90.106 7.7374C90.1712 7.67212 90.2598 7.63545 90.3521 7.63545H93.7329C93.8252 7.63545 93.9138 7.67212 93.979 7.7374C94.0443 7.80267 94.081 7.8912 94.081 7.98351V23.5639C94.081 23.6562 94.0443 23.7447 93.979 23.81C93.9138 23.8752 93.8252 23.9119 93.7329 23.9119Z" fill="white"/>
<path d="M101.386 7.63557H103.44C103.533 7.63557 103.621 7.67224 103.686 7.73751C103.752 7.80279 103.788 7.89132 103.788 7.98363V10.7252C103.788 10.8175 103.752 10.906 103.686 10.9713C103.621 11.0366 103.533 11.0732 103.44 11.0732H101.386V23.564C101.386 23.6563 101.349 23.7448 101.284 23.8101C101.218 23.8754 101.13 23.912 101.038 23.912H97.6567C97.5644 23.912 97.4759 23.8754 97.4106 23.8101C97.3454 23.7448 97.3087 23.6563 97.3087 23.564V11.0732H96.1357C96.0434 11.0732 95.9549 11.0366 95.8896 10.9713C95.8243 10.906 95.7877 10.8175 95.7877 10.7252V7.98363C95.7877 7.89132 95.8243 7.80279 95.8896 7.73751C95.9549 7.67224 96.0434 7.63557 96.1357 7.63557H97.3087V6.9058C97.3087 3.71061 98.5849 1.64197 102.481 1.64197C102.641 1.64197 103.078 1.64197 103.454 1.65473C103.544 1.65833 103.629 1.69658 103.691 1.76147C103.754 1.82636 103.788 1.91284 103.788 2.00279V4.73158C103.788 4.8239 103.752 4.91243 103.686 4.9777C103.621 5.04297 103.533 5.07964 103.44 5.07964H103.028C101.659 5.07964 101.386 5.96256 101.386 6.93597V7.63557Z" fill="white"/>
<path d="M109.27 17.8572C109.27 19.4397 109.91 20.4433 111.37 20.4433C112.831 20.4433 113.621 19.3782 113.621 17.827V7.9827C113.621 7.89039 113.658 7.80186 113.723 7.73659C113.788 7.67131 113.877 7.63464 113.969 7.63464H117.355C117.447 7.63464 117.535 7.67131 117.601 7.73659C117.666 7.80186 117.703 7.89039 117.703 7.9827V23.563C117.703 23.6554 117.666 23.7439 117.601 23.8092C117.535 23.8744 117.447 23.9111 117.355 23.9111H114C113.908 23.9111 113.82 23.8744 113.754 23.8092C113.689 23.7439 113.652 23.6554 113.652 23.563V22.6941C113.225 23.2417 112.161 24.0944 110.245 24.0944C106.624 24.0944 105.194 21.658 105.194 18.3433V7.9827C105.194 7.89039 105.231 7.80186 105.296 7.73659C105.362 7.67131 105.45 7.63464 105.543 7.63464H108.922C109.014 7.63464 109.103 7.67131 109.168 7.73659C109.234 7.80186 109.27 7.89039 109.27 7.9827V17.8572Z" fill="white"/>
<path d="M124.058 23.9125H120.677C120.585 23.9125 120.497 23.8759 120.431 23.8106C120.366 23.7453 120.329 23.6568 120.329 23.5645V5.22286C120.329 5.17163 120.341 5.12105 120.363 5.07472C120.384 5.02839 120.416 4.98746 120.456 4.95485L123.837 2.14716C123.887 2.10515 123.949 2.07847 124.015 2.07023C124.08 2.06199 124.147 2.07253 124.206 2.10062C124.266 2.12871 124.317 2.17319 124.352 2.22889C124.387 2.28458 124.406 2.34918 124.406 2.41517V23.5656C124.406 23.6577 124.369 23.746 124.304 23.811C124.239 23.876 124.15 23.9125 124.058 23.9125Z" fill="white"/>
</svg>
