<?xml version="1.0" encoding="UTF-8"?>
<svg id="Layer_2" data-name="Layer 2" xmlns="http://www.w3.org/2000/svg" viewBox="0 0 1073.65 272.72">
  <defs>
    <style>
      .cls-1, .cls-2, .cls-3 {
        stroke-width: 0px;
      }

      .cls-2 {
        fill: #2ab673;
      }

      .cls-3 {
        fill: #fff;
      }
    </style>
  </defs>
  <g id="Layer_1-2" data-name="Layer 1">
    <g id="Supliful_Logo">
      <g>
        <path class="cls-2" d="m208.3,101.07C206.64,44.48,159.86-.78,102.69.01,46.09.8.1,47.37,0,103.98c-.04,22.26,6.9,42.9,18.76,59.85,1.39,1.99-.03,4.71-2.46,4.71H3.05c-1.7,0-3.05,1.41-3,3.11,1.66,56.59,48.44,101.85,105.61,101.06,56.61-.79,102.59-47.36,102.69-103.97.04-22.26-6.9-42.9-18.76-59.85-1.39-1.99.03-4.71,2.46-4.71h13.26c1.7,0,3.05-1.41,3-3.11"/>
        <path class="cls-3" d="m56.54,133.44l63.99-63.99c1.89-1.89,5.12-.55,5.12,2.12v59.23c0,1.66,1.34,3,3,3h24.02c2.67,0,4.01,3.23,2.12,5.12l-63.99,63.99c-1.89,1.89-5.12.55-5.12-2.12v-59.23c0-1.66-1.34-3-3-3h-24.02c-2.67,0-4.01-3.23-2.12-5.12"/>
      </g>
      <g>
        <path class="cls-1" d="m356.91,116.15c6.29,1.84,12.06,2.88,19.14,4.98,22.55,6.82,33.57,17.83,33.57,43.27,0,28.58-23.6,43.53-51.14,43.53-37.2,0-49.83-20.96-50.12-44.18-.02-1.67,1.34-3.03,3-3.03h27.7c1.56,0,2.87,1.2,2.98,2.76.63,8.79,4.59,16.12,16.95,16.12,9.18,0,16.52-4.46,16.52-12.59s-4.2-11.8-13.9-14.42c-7.6-2.1-13.64-3.41-21.24-6.29-19.4-7.08-29.11-20.19-29.11-41.43,0-23.6,19.93-40.91,47.99-40.91s45.91,13.88,47.37,41.17c.09,1.71-1.29,3.14-3,3.14h-26.35c-1.51,0-2.82-1.12-2.98-2.62-.98-9.15-5.98-14.43-15.83-14.43-8.39,0-13.9,4.72-13.9,11.8s3.93,10.75,12.33,13.11"/>
        <path class="cls-1" d="m460.78,153.91c0,13.64,5.51,22.29,18.09,22.29s19.41-9.18,19.41-22.55v-84.85c0-1.66,1.34-3,3-3h29.14c1.66,0,3,1.34,3,3v134.29c0,1.66-1.34,3-3,3h-28.88c-1.66,0-3-1.34-3-3v-7.49c-3.67,4.72-12.85,12.06-29.37,12.06-31.21,0-43.53-20.98-43.53-49.56v-89.31c0-1.66,1.34-3,3-3h29.14c1.66,0,3,1.34,3,3v85.11Z"/>
        <path class="cls-1" d="m590.15,233.43l-29.14,24.2c-1.96,1.62-4.92.23-4.92-2.31V68.8c0-1.66,1.34-3,3-3h27.3c1.66,0,3,1.34,3,3v10.37c7.08-7.08,20.72-15.73,43.01-15.73,42.48,0,70.28,29.9,70.28,72.11s-27.27,72.9-71.85,72.9c-18.62,0-32.52-7.6-39.6-13.64v36.3c0,.89-.4,1.74-1.08,2.31m38.85-56.18c23.86,0,38.55-17.31,38.55-41.17s-15.47-41.43-38.81-41.43-38.55,17.57-38.55,41.43,15.47,41.17,38.81,41.17"/>
        <path class="cls-1" d="m751.44,206.09h-29.14c-1.66,0-3-1.34-3-3V45.41c0-1.16.52-2.25,1.41-2.99l28.82-23.93c1.96-1.62,4.92-.23,4.92,2.31v182.3c0,1.66-1.34,3-3,3"/>
        <path class="cls-1" d="m773.72,36.17c0-11.8,9.44-21.24,20.98-21.24s20.98,9.44,20.98,21.24-9.18,20.72-20.98,20.72-20.98-9.18-20.98-20.72m35.55,169.93h-29.14c-1.66,0-3-1.34-3-3V68.8c0-1.66,1.34-3,3-3h29.14c1.66,0,3,1.34,3,3v134.29c0,1.66-1.34,3-3,3"/>
        <path class="cls-1" d="m875.22,65.8h17.72c1.66,0,3,1.34,3,3v23.63c0,1.66-1.34,3-3,3h-17.72v107.66c0,1.66-1.34,3-3,3h-29.14c-1.66,0-3-1.34-3-3v-107.66h-10.11c-1.66,0-3-1.34-3-3v-23.63c0-1.66,1.34-3,3-3h10.11v-6.29c0-27.53,11.01-45.37,44.58-45.37,1.39,0,5.16,0,8.39.11,1.61.06,2.89,1.39,2.89,3v23.52c0,1.66-1.34,3-3,3h-3.56c-11.8,0-14.16,7.61-14.16,16v6.03Z"/>
        <path class="cls-1" d="m943.19,153.91c0,13.64,5.51,22.29,18.09,22.29s19.4-9.18,19.4-22.55v-84.85c0-1.66,1.34-3,3-3h29.14c1.66,0,3,1.34,3,3v134.29c0,1.66-1.34,3-3,3h-28.88c-1.66,0-3-1.34-3-3v-7.49c-3.67,4.72-12.85,12.06-29.37,12.06-31.21,0-43.53-20.98-43.53-49.56v-89.31c0-1.66,1.34-3,3-3h29.14c1.66,0,3,1.34,3,3v85.11Z"/>
        <path class="cls-1" d="m1070.65,206.09h-29.14c-1.66,0-3-1.34-3-3V44.99c0-.89.4-1.74,1.08-2.31l29.14-24.2c1.95-1.62,4.92-.23,4.92,2.31v182.3c0,1.66-1.34,3-3,3"/>
      </g>
    </g>
  </g>
</svg>